<mxfile host="app.diagrams.net" agent="Mozilla/5.0 (Windows NT 10.0; Win64; x64) AppleWebKit/537.36 (KHTML, like Gecko) Chrome/131.0.0.0 Safari/537.36" version="26.0.4">
  <diagram name="Seite-1" id="sAYvJqeAyY0Ytrwlz8tN">
    <mxGraphModel dx="989" dy="532" grid="1" gridSize="10" guides="1" tooltips="1" connect="1" arrows="1" fold="1" page="1" pageScale="1" pageWidth="1654" pageHeight="1169" math="0" shadow="0">
      <root>
        <mxCell id="0" />
        <mxCell id="1" parent="0" />
        <mxCell id="E9FYopG7kq1XcAL_Y66S-16" style="edgeStyle=orthogonalEdgeStyle;rounded=0;orthogonalLoop=1;jettySize=auto;html=1;entryX=0;entryY=0.5;entryDx=0;entryDy=0;endArrow=none;endFill=0;strokeWidth=2;" edge="1" parent="1" source="E9FYopG7kq1XcAL_Y66S-1" target="E9FYopG7kq1XcAL_Y66S-4">
          <mxGeometry relative="1" as="geometry">
            <mxPoint x="440" y="280" as="targetPoint" />
            <Array as="points">
              <mxPoint x="440" y="225" />
              <mxPoint x="440" y="260" />
            </Array>
          </mxGeometry>
        </mxCell>
        <mxCell id="E9FYopG7kq1XcAL_Y66S-1" value="FB" style="rounded=0;whiteSpace=wrap;html=1;fillColor=#FFE599;strokeColor=#d6b656;strokeWidth=2;" vertex="1" parent="1">
          <mxGeometry x="480" y="210" width="40" height="30" as="geometry" />
        </mxCell>
        <mxCell id="E9FYopG7kq1XcAL_Y66S-2" value="Sequenz" style="rounded=0;whiteSpace=wrap;html=1;fillColor=#FFE599;strokeColor=#d6b656;strokeWidth=2;" vertex="1" parent="1">
          <mxGeometry x="520" y="210" width="120" height="30" as="geometry" />
        </mxCell>
        <mxCell id="E9FYopG7kq1XcAL_Y66S-3" value="ST" style="rounded=0;whiteSpace=wrap;html=1;fillColor=#FFE599;strokeColor=#d6b656;strokeWidth=2;" vertex="1" parent="1">
          <mxGeometry x="640" y="210" width="40" height="30" as="geometry" />
        </mxCell>
        <mxCell id="E9FYopG7kq1XcAL_Y66S-4" value="ACT" style="rounded=0;whiteSpace=wrap;html=1;fillColor=#fff2cc;strokeColor=#d6b656;strokeWidth=2;" vertex="1" parent="1">
          <mxGeometry x="479.5" y="250" width="40" height="20" as="geometry" />
        </mxCell>
        <mxCell id="E9FYopG7kq1XcAL_Y66S-5" value="Ablauf" style="rounded=0;whiteSpace=wrap;html=1;fillColor=#fff2cc;strokeColor=#d6b656;strokeWidth=2;" vertex="1" parent="1">
          <mxGeometry x="519.5" y="250" width="80" height="20" as="geometry" />
        </mxCell>
        <mxCell id="E9FYopG7kq1XcAL_Y66S-20" style="edgeStyle=orthogonalEdgeStyle;rounded=0;orthogonalLoop=1;jettySize=auto;html=1;entryX=1;entryY=0.5;entryDx=0;entryDy=0;dashed=1;" edge="1" parent="1" source="E9FYopG7kq1XcAL_Y66S-6" target="E9FYopG7kq1XcAL_Y66S-9">
          <mxGeometry relative="1" as="geometry">
            <Array as="points">
              <mxPoint x="680" y="260" />
              <mxPoint x="680" y="290" />
            </Array>
          </mxGeometry>
        </mxCell>
        <mxCell id="E9FYopG7kq1XcAL_Y66S-6" value="SFC" style="rounded=0;whiteSpace=wrap;html=1;fillColor=#fff2cc;strokeColor=#d6b656;strokeWidth=2;" vertex="1" parent="1">
          <mxGeometry x="599.5" y="250" width="40" height="20" as="geometry" />
        </mxCell>
        <mxCell id="E9FYopG7kq1XcAL_Y66S-17" style="edgeStyle=orthogonalEdgeStyle;rounded=0;orthogonalLoop=1;jettySize=auto;html=1;endArrow=none;endFill=0;strokeWidth=2;" edge="1" parent="1" source="E9FYopG7kq1XcAL_Y66S-7">
          <mxGeometry relative="1" as="geometry">
            <mxPoint x="439.5" y="260" as="targetPoint" />
          </mxGeometry>
        </mxCell>
        <mxCell id="E9FYopG7kq1XcAL_Y66S-7" value="ACT" style="rounded=0;whiteSpace=wrap;html=1;fillColor=#fff2cc;strokeColor=#d6b656;strokeWidth=2;" vertex="1" parent="1">
          <mxGeometry x="479.5" y="280" width="40" height="20" as="geometry" />
        </mxCell>
        <mxCell id="E9FYopG7kq1XcAL_Y66S-8" value="Zuweisung 1" style="rounded=0;whiteSpace=wrap;html=1;fillColor=#fff2cc;strokeColor=#d6b656;strokeWidth=2;" vertex="1" parent="1">
          <mxGeometry x="519.5" y="280" width="80" height="20" as="geometry" />
        </mxCell>
        <mxCell id="E9FYopG7kq1XcAL_Y66S-9" value="ST" style="rounded=0;whiteSpace=wrap;html=1;fillColor=#fff2cc;strokeColor=#d6b656;strokeWidth=2;" vertex="1" parent="1">
          <mxGeometry x="599.5" y="280" width="40" height="20" as="geometry" />
        </mxCell>
        <mxCell id="E9FYopG7kq1XcAL_Y66S-18" style="edgeStyle=orthogonalEdgeStyle;rounded=0;orthogonalLoop=1;jettySize=auto;html=1;endArrow=none;endFill=0;strokeWidth=2;" edge="1" parent="1" source="E9FYopG7kq1XcAL_Y66S-10">
          <mxGeometry relative="1" as="geometry">
            <mxPoint x="439.5" y="290" as="targetPoint" />
          </mxGeometry>
        </mxCell>
        <mxCell id="E9FYopG7kq1XcAL_Y66S-10" value="ACT" style="rounded=0;whiteSpace=wrap;html=1;fillColor=#fff2cc;strokeColor=#d6b656;strokeWidth=2;" vertex="1" parent="1">
          <mxGeometry x="479.5" y="310" width="40" height="20" as="geometry" />
        </mxCell>
        <mxCell id="E9FYopG7kq1XcAL_Y66S-11" value="Zuweisung 2" style="rounded=0;whiteSpace=wrap;html=1;fillColor=#fff2cc;strokeColor=#d6b656;strokeWidth=2;" vertex="1" parent="1">
          <mxGeometry x="519.5" y="310" width="80" height="20" as="geometry" />
        </mxCell>
        <mxCell id="E9FYopG7kq1XcAL_Y66S-21" style="edgeStyle=orthogonalEdgeStyle;rounded=0;orthogonalLoop=1;jettySize=auto;html=1;endArrow=none;endFill=0;startArrow=classic;startFill=1;dashed=1;" edge="1" parent="1" source="E9FYopG7kq1XcAL_Y66S-12">
          <mxGeometry relative="1" as="geometry">
            <mxPoint x="679.5" y="290" as="targetPoint" />
          </mxGeometry>
        </mxCell>
        <mxCell id="E9FYopG7kq1XcAL_Y66S-12" value="ST" style="rounded=0;whiteSpace=wrap;html=1;fillColor=#fff2cc;strokeColor=#d6b656;strokeWidth=2;" vertex="1" parent="1">
          <mxGeometry x="599.5" y="310" width="40" height="20" as="geometry" />
        </mxCell>
        <mxCell id="E9FYopG7kq1XcAL_Y66S-19" style="edgeStyle=orthogonalEdgeStyle;rounded=0;orthogonalLoop=1;jettySize=auto;html=1;endArrow=none;endFill=0;strokeWidth=2;" edge="1" parent="1" source="E9FYopG7kq1XcAL_Y66S-13">
          <mxGeometry relative="1" as="geometry">
            <mxPoint x="439.5" y="320" as="targetPoint" />
          </mxGeometry>
        </mxCell>
        <mxCell id="E9FYopG7kq1XcAL_Y66S-13" value="ACT" style="rounded=0;whiteSpace=wrap;html=1;fillColor=#fff2cc;strokeColor=#d6b656;strokeWidth=2;" vertex="1" parent="1">
          <mxGeometry x="479.5" y="340" width="40" height="20" as="geometry" />
        </mxCell>
        <mxCell id="E9FYopG7kq1XcAL_Y66S-14" value="Zuweisung n" style="rounded=0;whiteSpace=wrap;html=1;fillColor=#fff2cc;strokeColor=#d6b656;strokeWidth=2;" vertex="1" parent="1">
          <mxGeometry x="519.5" y="340" width="80" height="20" as="geometry" />
        </mxCell>
        <mxCell id="E9FYopG7kq1XcAL_Y66S-22" style="edgeStyle=orthogonalEdgeStyle;rounded=0;orthogonalLoop=1;jettySize=auto;html=1;endArrow=none;endFill=0;startArrow=classic;startFill=1;dashed=1;" edge="1" parent="1">
          <mxGeometry relative="1" as="geometry">
            <mxPoint x="679.5" y="320" as="targetPoint" />
            <mxPoint x="640" y="350" as="sourcePoint" />
          </mxGeometry>
        </mxCell>
        <mxCell id="E9FYopG7kq1XcAL_Y66S-15" value="ST" style="rounded=0;whiteSpace=wrap;html=1;fillColor=#fff2cc;strokeColor=#d6b656;strokeWidth=2;" vertex="1" parent="1">
          <mxGeometry x="599.5" y="340" width="40" height="20" as="geometry" />
        </mxCell>
        <mxCell id="E9FYopG7kq1XcAL_Y66S-27" style="edgeStyle=orthogonalEdgeStyle;rounded=0;orthogonalLoop=1;jettySize=auto;html=1;endArrow=none;endFill=0;" edge="1" parent="1" source="E9FYopG7kq1XcAL_Y66S-24" target="E9FYopG7kq1XcAL_Y66S-3">
          <mxGeometry relative="1" as="geometry" />
        </mxCell>
        <mxCell id="E9FYopG7kq1XcAL_Y66S-38" style="edgeStyle=orthogonalEdgeStyle;rounded=0;orthogonalLoop=1;jettySize=auto;html=1;entryX=0;entryY=0.5;entryDx=0;entryDy=0;endArrow=none;endFill=0;strokeWidth=2;" edge="1" parent="1" source="E9FYopG7kq1XcAL_Y66S-24" target="E9FYopG7kq1XcAL_Y66S-29">
          <mxGeometry relative="1" as="geometry" />
        </mxCell>
        <mxCell id="E9FYopG7kq1XcAL_Y66S-24" value="FB" style="rounded=0;whiteSpace=wrap;html=1;fillColor=#FFE599;strokeColor=#d6b656;strokeWidth=2;" vertex="1" parent="1">
          <mxGeometry x="770" y="210" width="40" height="30" as="geometry" />
        </mxCell>
        <mxCell id="E9FYopG7kq1XcAL_Y66S-25" value="FB_Basis" style="rounded=0;whiteSpace=wrap;html=1;fillColor=#FFE599;strokeColor=#d6b656;strokeWidth=2;" vertex="1" parent="1">
          <mxGeometry x="810" y="210" width="120" height="30" as="geometry" />
        </mxCell>
        <mxCell id="E9FYopG7kq1XcAL_Y66S-26" value="ST" style="rounded=0;whiteSpace=wrap;html=1;fillColor=#FFE599;strokeColor=#d6b656;strokeWidth=2;" vertex="1" parent="1">
          <mxGeometry x="930" y="210" width="40" height="30" as="geometry" />
        </mxCell>
        <mxCell id="E9FYopG7kq1XcAL_Y66S-28" value="EXTENDS" style="text;html=1;align=center;verticalAlign=middle;whiteSpace=wrap;rounded=0;" vertex="1" parent="1">
          <mxGeometry x="695" y="200" width="60" height="30" as="geometry" />
        </mxCell>
        <mxCell id="E9FYopG7kq1XcAL_Y66S-29" value="M" style="rounded=0;whiteSpace=wrap;html=1;fillColor=#fff2cc;strokeColor=#d6b656;strokeWidth=2;" vertex="1" parent="1">
          <mxGeometry x="810" y="260" width="40" height="20" as="geometry" />
        </mxCell>
        <mxCell id="E9FYopG7kq1XcAL_Y66S-30" value="M_Start" style="rounded=0;whiteSpace=wrap;html=1;fillColor=#fff2cc;strokeColor=#d6b656;strokeWidth=2;" vertex="1" parent="1">
          <mxGeometry x="850" y="260" width="80" height="20" as="geometry" />
        </mxCell>
        <mxCell id="E9FYopG7kq1XcAL_Y66S-39" style="edgeStyle=orthogonalEdgeStyle;rounded=0;orthogonalLoop=1;jettySize=auto;html=1;endArrow=none;endFill=0;strokeWidth=2;" edge="1" parent="1" source="E9FYopG7kq1XcAL_Y66S-32">
          <mxGeometry relative="1" as="geometry">
            <mxPoint x="790" y="270" as="targetPoint" />
          </mxGeometry>
        </mxCell>
        <mxCell id="E9FYopG7kq1XcAL_Y66S-32" value="M" style="rounded=0;whiteSpace=wrap;html=1;fillColor=#fff2cc;strokeColor=#d6b656;strokeWidth=2;" vertex="1" parent="1">
          <mxGeometry x="810" y="280" width="40" height="20" as="geometry" />
        </mxCell>
        <mxCell id="E9FYopG7kq1XcAL_Y66S-33" value="M_Stop" style="rounded=0;whiteSpace=wrap;html=1;fillColor=#fff2cc;strokeColor=#d6b656;strokeWidth=2;" vertex="1" parent="1">
          <mxGeometry x="850" y="280" width="80" height="20" as="geometry" />
        </mxCell>
        <mxCell id="E9FYopG7kq1XcAL_Y66S-40" style="edgeStyle=orthogonalEdgeStyle;rounded=0;orthogonalLoop=1;jettySize=auto;html=1;endArrow=none;endFill=0;strokeWidth=2;" edge="1" parent="1" source="E9FYopG7kq1XcAL_Y66S-34">
          <mxGeometry relative="1" as="geometry">
            <mxPoint x="790" y="290" as="targetPoint" />
          </mxGeometry>
        </mxCell>
        <mxCell id="E9FYopG7kq1XcAL_Y66S-34" value="M" style="rounded=0;whiteSpace=wrap;html=1;fillColor=#fff2cc;strokeColor=#d6b656;strokeWidth=2;" vertex="1" parent="1">
          <mxGeometry x="810" y="300" width="40" height="20" as="geometry" />
        </mxCell>
        <mxCell id="E9FYopG7kq1XcAL_Y66S-35" value="M_Reset" style="rounded=0;whiteSpace=wrap;html=1;fillColor=#fff2cc;strokeColor=#d6b656;strokeWidth=2;" vertex="1" parent="1">
          <mxGeometry x="850" y="300" width="80" height="20" as="geometry" />
        </mxCell>
        <mxCell id="E9FYopG7kq1XcAL_Y66S-41" style="edgeStyle=orthogonalEdgeStyle;rounded=0;orthogonalLoop=1;jettySize=auto;html=1;endArrow=none;endFill=0;strokeWidth=2;" edge="1" parent="1" source="E9FYopG7kq1XcAL_Y66S-36">
          <mxGeometry relative="1" as="geometry">
            <mxPoint x="790" y="310" as="targetPoint" />
          </mxGeometry>
        </mxCell>
        <mxCell id="E9FYopG7kq1XcAL_Y66S-36" value="P" style="rounded=0;whiteSpace=wrap;html=1;fillColor=#fff2cc;strokeColor=#d6b656;strokeWidth=2;" vertex="1" parent="1">
          <mxGeometry x="810" y="320" width="40" height="20" as="geometry" />
        </mxCell>
        <mxCell id="E9FYopG7kq1XcAL_Y66S-37" value="P_State" style="rounded=0;whiteSpace=wrap;html=1;fillColor=#fff2cc;strokeColor=#d6b656;strokeWidth=2;" vertex="1" parent="1">
          <mxGeometry x="850" y="320" width="80" height="20" as="geometry" />
        </mxCell>
      </root>
    </mxGraphModel>
  </diagram>
</mxfile>
